<?xml version="1.0" standalone="no"?>
<!DOCTYPE svg PUBLIC "-//W3C//DTD SVG 20010904//EN"
 "http://www.w3.org/TR/2001/REC-SVG-20010904/DTD/svg10.dtd">
<svg version="1.0" xmlns="http://www.w3.org/2000/svg"
 width="216.000000pt" height="155.000000pt" viewBox="0 0 216.000000 155.000000"
 preserveAspectRatio="xMidYMid meet">

<g transform="translate(0.000000,155.000000) scale(0.100000,-0.100000)"
fill="#000000" stroke="none">
<path d="M1082 1463 c-21 -15 -22 -17 -6 -34 25 -27 54 -25 54 5 0 35 -20 47
-48 29z"/>
<path d="M1742 1458 c-6 -7 -15 -39 -21 -70 -16 -88 -65 -185 -116 -230 -27
-24 -72 -23 -85 1 -12 24 -13 118 -1 125 5 3 12 18 16 33 7 30 80 103 102 103
22 0 9 25 -14 28 -29 4 -98 -64 -122 -121 -28 -66 -28 -155 0 -191 27 -34 91
-36 130 -3 42 36 99 144 116 221 8 39 19 75 23 79 13 15 114 -170 151 -278 29
-84 167 -191 157 -122 -2 15 -9 21 -22 19 -29 -5 -65 36 -103 118 -19 41 -49
103 -65 138 -51 108 -88 162 -113 162 -13 0 -27 -6 -33 -12z"/>
<path d="M1114 1165 c-8 -21 49 -146 89 -196 109 -133 139 -172 147 -194 13
-35 13 -291 -1 -354 -11 -53 -22 -61 -91 -61 -33 0 -38 3 -43 28 -14 64 -21
83 -30 82 -12 -1 -8 -81 5 -116 9 -22 15 -24 69 -24 87 0 108 13 120 72 6 27
11 120 11 206 0 185 0 186 -107 313 -69 82 -89 114 -132 212 -23 51 -28 55
-37 32z"/>
<path d="M125 1118 c-17 -41 -12 -48 31 -48 31 0 34 3 34 28 0 57 -43 70 -65
20z"/>
<path d="M840 1080 c-6 -11 -17 -71 -25 -133 -30 -236 -63 -338 -132 -405 -38
-37 -50 -43 -81 -40 l-37 3 1 80 c0 126 37 224 103 280 13 11 32 28 43 37 11
9 36 22 55 29 19 6 32 16 30 22 -8 22 -57 8 -107 -28 -111 -82 -151 -165 -158
-335 -4 -110 2 -120 78 -120 39 0 53 6 88 35 75 65 116 183 146 425 8 58 17
117 21 131 8 33 -10 47 -25 19z"/>
<path d="M247 854 c-3 -3 4 -23 16 -43 36 -59 107 -215 107 -235 0 -6 8 -24
17 -41 10 -19 18 -63 21 -121 4 -90 -4 -133 -40 -224 -5 -14 -20 -50 -32 -80
l-21 -55 -45 -1 c-32 0 -45 -5 -45 -15 0 -10 16 -15 56 -17 l55 -3 37 93 c62
158 70 192 65 303 -3 67 -10 110 -21 130 -9 17 -17 35 -17 41 0 20 -71 176
-108 237 -22 36 -32 43 -45 31z"/>
</g>
</svg>
